<svg xmlns="http://www.w3.org/2000/svg" version="1.1" xmlns:xlink="http://www.w3.org/1999/xlink" xmlns:svgjs="http://svgjs.dev/svgjs" width="1000" height="202" viewBox="0 0 1000 202"><g transform="matrix(1,0,0,1,-0.6060606060606233,-0.014244518909180215)"><svg viewBox="0 0 396 80" data-background-color="#ffffff" preserveAspectRatio="xMidYMid meet" height="202" width="1000" xmlns="http://www.w3.org/2000/svg" xmlns:xlink="http://www.w3.org/1999/xlink"><g id="tight-bounds" transform="matrix(1,0,0,1,0.2400000000000091,0.005641393627399793)"><svg viewBox="0 0 395.52 79.9887172127452" height="79.9887172127452" width="395.52"><g><svg viewBox="0 0 552.8088098681151 111.79830998496887" height="79.9887172127452" width="395.52"><g><rect width="7.295287243343267" height="97.07523298260682" x="130.8959120401036" y="7.361538501181023" fill="#31c48d" opacity="1" stroke-width="0" stroke="transparent" fill-opacity="1" class="rect-o-0" data-fill-palette-color="primary" rx="1%" id="o-0" data-palette-color="#31c48d"></rect></g><g transform="matrix(1,0,0,1,157.28880986811512,15.451141249731592)"><svg viewBox="0 0 395.52 80.89602748550568" height="80.89602748550568" width="395.52"><g><svg viewBox="0 0 395.52 80.89602748550568" height="80.89602748550568" width="395.52"><g><svg viewBox="0 0 395.52 80.89602748550568" height="80.89602748550568" width="395.52"><g transform="matrix(1,0,0,1,0,0)"><svg width="395.52" viewBox="1.340000033378601 -36.54999923706055 227.3800048828125 46.5099983215332" height="80.89602748550568" data-palette-color="#31c48d"><path d="M27.49-9.69L31.2-3.59Q28.76-1.49 25.73-0.37 22.71 0.76 19.46 0.76L19.46 0.76Q16.97 0.76 14.66 0.11 12.35-0.54 10.34-1.72 8.33-2.91 6.67-4.57 5-6.23 3.82-8.24 2.64-10.25 1.99-12.56 1.34-14.87 1.34-17.36L1.34-17.36Q1.34-19.85 1.99-22.17 2.64-24.49 3.82-26.5 5-28.52 6.67-30.18 8.33-31.84 10.34-33.02 12.35-34.2 14.66-34.85 16.97-35.5 19.46-35.5L19.46-35.5Q22.71-35.5 25.73-34.39 28.76-33.28 31.2-31.15L31.2-31.15 27.49-25.05Q25.95-26.71 23.85-27.6 21.75-28.49 19.46-28.49L19.46-28.49Q17.14-28.49 15.11-27.61 13.09-26.73 11.57-25.23 10.06-23.73 9.18-21.69 8.3-19.65 8.3-17.36L8.3-17.36Q8.3-15.06 9.18-13.05 10.06-11.04 11.57-9.52 13.09-8.01 15.11-7.13 17.14-6.25 19.46-6.25L19.46-6.25Q21.75-6.25 23.85-7.14 25.95-8.03 27.49-9.69L27.49-9.69ZM41.21-14.94L41.21 0 34.54 0 34.54-36.55 41.21-36.55 41.21-25Q42.4-25.9 43.67-26.28 44.94-26.66 46.26-26.66L46.26-26.66Q48.68-26.66 50.8-25.74 52.93-24.83 54.5-23.23 56.08-21.63 56.99-19.49 57.91-17.36 57.91-14.94L57.91-14.94 57.91 0 51.19 0 51.19-14.94 51.24-14.94Q51.24-15.97 50.85-16.88 50.46-17.8 49.78-18.48 49.09-19.17 48.19-19.56 47.29-19.95 46.26-19.95L46.26-19.95Q45.21-19.95 44.28-19.56 43.36-19.17 42.67-18.48 41.99-17.8 41.6-16.88 41.21-15.97 41.21-14.94L41.21-14.94ZM87.96-26.1L87.96 0 86.35 0 83.76-3.59Q82.81-2.73 81.75-1.99 80.68-1.25 79.51-0.7 78.34-0.15 77.11 0.17 75.87 0.49 74.6 0.49L74.6 0.49Q71.85 0.49 69.42-0.44 66.99-1.37 65.17-3.14 63.35-4.91 62.3-7.47 61.25-10.03 61.25-13.31L61.25-13.31Q61.25-16.36 62.3-18.91 63.35-21.46 65.17-23.29 66.99-25.12 69.42-26.14 71.85-27.15 74.6-27.15L74.6-27.15Q75.87-27.15 77.12-26.83 78.36-26.51 79.54-25.95 80.71-25.39 81.77-24.63 82.83-23.88 83.76-23L83.76-23 86.35-26.1 87.96-26.1ZM81.25-13.31L81.25-13.31Q81.25-14.67 80.72-15.95 80.2-17.24 79.29-18.23 78.39-19.21 77.18-19.81 75.97-20.41 74.6-20.41L74.6-20.41Q73.24-20.41 72.03-19.95 70.82-19.48 69.93-18.58 69.04-17.68 68.53-16.35 68.01-15.01 68.01-13.31L68.01-13.31Q68.01-11.6 68.53-10.27 69.04-8.94 69.93-8.03 70.82-7.13 72.03-6.67 73.24-6.2 74.6-6.2L74.6-6.2Q75.97-6.2 77.18-6.8 78.39-7.4 79.29-8.39 80.2-9.38 80.72-10.66 81.25-11.94 81.25-13.31ZM111.2 0L106.14 0Q103.73 0 101.6-0.92 99.48-1.83 97.88-3.43 96.28-5.03 95.37-7.15 94.45-9.28 94.45-11.69L94.45-11.69 94.45-19.46 91.2-19.46 91.2-26.1 94.45-26.1 94.45-36.55 101.09-36.55 101.09-26.1 111.2-26.1 111.2-19.46 101.09-19.46 101.09-11.69Q101.09-10.64 101.48-9.73 101.87-8.81 102.56-8.13 103.24-7.45 104.17-7.04 105.1-6.64 106.14-6.64L106.14-6.64 111.2-6.64 111.2 0ZM129.29 0L129.29 0 114.05 0 114.05-6.64 129.29-6.64Q129.97-6.64 130.46-7.13 130.95-7.62 130.95-8.3L130.95-8.3Q130.95-9.01 130.46-9.23 129.97-9.45 129.29-9.45L129.29-9.45 122.35-9.45Q120.62-9.45 119.11-10.11 117.59-10.77 116.47-11.9 115.35-13.04 114.7-14.55 114.05-16.06 114.05-17.8L114.05-17.8Q114.05-19.53 114.7-21.04 115.35-22.56 116.47-23.68 117.59-24.8 119.11-25.45 120.62-26.1 122.35-26.1L122.35-26.1 135.85-26.1 135.85-19.46 122.35-19.46Q121.67-19.46 121.18-18.97 120.69-18.48 120.69-17.8L120.69-17.8Q120.69-17.09 121.18-16.59 121.67-16.09 122.35-16.09L122.35-16.09 129.29-16.09Q131-16.09 132.51-15.52 134.02-14.94 135.15-13.92 136.27-12.89 136.93-11.45 137.59-10.01 137.59-8.3L137.59-8.3Q137.59-6.57 136.93-5.07 136.27-3.56 135.15-2.43 134.02-1.29 132.51-0.65 131 0 129.29 0ZM166.44-26.1L166.44 0 164.83 0 162.24-3.59Q161.29-2.73 160.23-1.99 159.17-1.25 158-0.7 156.82-0.15 155.59 0.17 154.36 0.49 153.09 0.49L153.09 0.49Q150.33 0.49 147.9-0.44 145.47-1.37 143.65-3.14 141.83-4.91 140.78-7.47 139.73-10.03 139.73-13.31L139.73-13.31Q139.73-16.36 140.78-18.91 141.83-21.46 143.65-23.29 145.47-25.12 147.9-26.14 150.33-27.15 153.09-27.15L153.09-27.15Q154.36-27.15 155.6-26.83 156.85-26.51 158.02-25.95 159.19-25.39 160.25-24.63 161.32-23.88 162.24-23L162.24-23 164.83-26.1 166.44-26.1ZM159.73-13.31L159.73-13.31Q159.73-14.67 159.2-15.95 158.68-17.24 157.78-18.23 156.87-19.21 155.66-19.81 154.46-20.41 153.09-20.41L153.09-20.41Q151.72-20.41 150.51-19.95 149.3-19.48 148.41-18.58 147.52-17.68 147.01-16.35 146.5-15.01 146.5-13.31L146.5-13.31Q146.5-11.6 147.01-10.27 147.52-8.94 148.41-8.03 149.3-7.13 150.51-6.67 151.72-6.2 153.09-6.2L153.09-6.2Q154.46-6.2 155.66-6.8 156.87-7.4 157.78-8.39 158.68-9.38 159.2-10.66 159.73-11.94 159.73-13.31ZM178.23-1.76L178.23 9.96 171.52 9.96 171.52-26.15 173.13-26.15 175.79-23Q176.69-23.85 177.77-24.61 178.84-25.37 180-25.92 181.16-26.46 182.41-26.78 183.65-27.1 184.92-27.1L184.92-27.1Q187.68-27.1 190.11-26.11 192.54-25.12 194.36-23.32 196.18-21.51 197.23-18.96 198.28-16.41 198.28-13.31L198.28-13.31Q198.28-10.08 197.23-7.51 196.18-4.93 194.36-3.14 192.54-1.34 190.11-0.39 187.68 0.56 184.92 0.56L184.92 0.56Q184.04 0.56 183.18 0.37 182.31 0.17 181.47-0.16 180.62-0.49 179.81-0.9 178.99-1.32 178.23-1.76L178.23-1.76ZM191.59-13.31L191.59-13.31Q191.59-14.97 191.06-16.28 190.54-17.6 189.63-18.52 188.73-19.43 187.51-19.92 186.29-20.41 184.92-20.41L184.92-20.41Q183.55-20.41 182.35-19.92 181.14-19.43 180.23-18.52 179.33-17.6 178.81-16.28 178.28-14.97 178.28-13.31L178.28-13.31Q178.28-11.72 178.81-10.4 179.33-9.08 180.23-8.15 181.14-7.23 182.35-6.71 183.55-6.2 184.92-6.2L184.92-6.2Q186.29-6.2 187.51-6.71 188.73-7.23 189.63-8.15 190.54-9.08 191.06-10.4 191.59-11.72 191.59-13.31ZM208.67-1.76L208.67 9.96 201.96 9.96 201.96-26.15 203.57-26.15 206.23-23Q207.14-23.85 208.21-24.61 209.28-25.37 210.44-25.92 211.6-26.46 212.85-26.78 214.09-27.1 215.36-27.1L215.36-27.1Q218.12-27.1 220.55-26.11 222.98-25.12 224.8-23.32 226.62-21.51 227.67-18.96 228.72-16.41 228.72-13.31L228.72-13.31Q228.72-10.08 227.67-7.51 226.62-4.93 224.8-3.14 222.98-1.34 220.55-0.39 218.12 0.56 215.36 0.56L215.36 0.56Q214.48 0.56 213.62 0.37 212.75 0.17 211.91-0.16 211.07-0.49 210.25-0.9 209.43-1.32 208.67-1.76L208.67-1.76ZM222.03-13.31L222.03-13.31Q222.03-14.97 221.5-16.28 220.98-17.6 220.08-18.52 219.17-19.43 217.95-19.92 216.73-20.41 215.36-20.41L215.36-20.41Q214-20.41 212.79-19.92 211.58-19.43 210.68-18.52 209.77-17.6 209.25-16.28 208.72-14.97 208.72-13.31L208.72-13.31Q208.72-11.72 209.25-10.4 209.77-9.08 210.68-8.15 211.58-7.23 212.79-6.71 214-6.2 215.36-6.2L215.36-6.2Q216.73-6.2 217.95-6.71 219.17-7.23 220.08-8.15 220.98-9.08 221.5-10.4 222.03-11.72 222.03-13.31Z" opacity="1" transform="matrix(1,0,0,1,0,0)" fill="#31c48d" class="undefined-text-0" data-fill-palette-color="primary" id="text-0"></path></svg></g></svg></g></svg></g></svg></g><g><svg viewBox="0 0 111.79830145543536 111.79830998496887" height="111.79830998496887" width="111.79830145543536"><g><svg xmlns="http://www.w3.org/2000/svg" xmlns:xlink="http://www.w3.org/1999/xlink" version="1.1" x="0" y="0" viewBox="0 -0.0000057220458984375 100 100.00000762939453" style="enable-background:new 0 0 100 100;" xml:space="preserve" width="111.79830145543536" height="111.79830998496887" class="icon-icon-0" data-fill-palette-color="accent" id="icon-0"><g fill="#31c48d" data-fill-palette-color="accent"><path d="M74.988 37.5c0 13.807-11.182 25-24.988 25C50 55.604 44.396 50 37.5 50H24.988C12.5 50 0 42.969 0 25 0 6.641 12.5 0 24.988 0H50c12.5 0 24.988 7.745 24.988 25V37.5z" fill="#31c48d" data-fill-palette-color="accent"></path></g><path d="M37.5 37.5" fill="#31c48d" data-fill-palette-color="accent"></path><path d="M37.5 37.5" fill="#31c48d" data-fill-palette-color="accent"></path><g fill="#31c48d" data-fill-palette-color="accent"><g fill="#31c48d" data-fill-palette-color="accent"><path d="M81.189 38.165C80.822 55.078 66.992 68.75 50 68.75h-6.25V62.5c0-3.448-2.808-6.25-6.25-6.25H25.623c-0.391 1.935-0.635 4.004-0.635 6.25V75c0 13.807 11.205 25 25.012 25 0-6.909 5.604-12.5 12.5-12.5h12.488C87.5 87.5 100 80.469 100 62.5 100 47.211 91.297 40.125 81.189 38.165z" fill="#31c48d" data-fill-palette-color="accent"></path></g></g></svg></g></svg></g></svg></g><defs></defs></svg><rect width="395.52" height="79.9887172127452" fill="none" stroke="none" visibility="hidden"></rect></g></svg></g></svg>